<svg xmlns="http://www.w3.org/2000/svg" width="35.097" height="124.929" viewBox="0 0 35.097 124.929"><path fill="#FFF" d="M34.906 70.265l-3.814 3.817c-.108.105-.281.188-.386.188-.105 0-.195-.12-.195-.269V38.75v-1.295-3.205c0-.149-.084-.186-.188-.081L27.5 36.99a.73.73 0 0 1-.459.19h-.039a.268.268 0 0 1-.269-.269V8.942 7.57 6.197c0-.148-.088-.183-.192-.078l-.99.989c-.104.103-.28.19-.391.19-.107 0-.285-.088-.391-.19L17.74.077a.277.277 0 0 0-.384 0l-7.028 7.031c-.104.103-.28.19-.391.19s-.286-.088-.391-.19l-.988-.989c-.105-.104-.193-.07-.193.078v30.716a.268.268 0 0 1-.269.269h-.039a.74.74 0 0 1-.459-.19l-2.821-2.818c-.104-.107-.192-.071-.192.078v39.752c0 .148-.088.269-.192.269-.107 0-.279-.083-.387-.188L.19 70.265c-.105-.104-.19-.068-.19.081v54.311c0 .149.122.271.271.271h6.797c.146 0 .27-.122.27-.271v-7.497a.17.17 0 0 1 .01-.063v-5.754c0-5.771 4.566-10.45 10.203-10.45 5.634 0 10.203 4.68 10.203 10.45v5.754a.265.265 0 0 1 .008.063v7.497c0 .149.121.271.271.271h6.793a.272.272 0 0 0 .271-.271V74.842v-.42V70.346c0-.149-.086-.185-.191-.081zM19.628 32.978v-14.98h.002c.018-2.654.818-4.908 1.938-5.773 1.118.865 1.92 3.119 1.937 5.773h.003v15.281a.273.273 0 0 1-.271.269h-3.336a.271.271 0 0 1-.271-.269v-.301zm-4.023 14.816c.02-2.654.821-4.908 1.939-5.773 1.118.865 1.919 3.119 1.937 5.773h.002v4.14c-.594-.259-1.25-.402-1.938-.402s-1.346.144-1.939.402v-4.14zm-4.014-14.816v-14.98h.002c.018-2.654.818-4.908 1.938-5.773 1.118.865 1.919 3.119 1.938 5.773v15.281a.272.272 0 0 1-.269.269h-3.341a.272.272 0 0 1-.269-.269v-.301zM9.918 92.26v4.098a.27.27 0 0 1-.269.269H6.311a.271.271 0 0 1-.271-.269V84.904h.002c.018-2.656.82-4.911 1.937-5.775 1.118.864 1.923 3.119 1.937 5.775h.003v7.356zm1.99-38.206v14.979h-.017a.268.268 0 0 1-.252.18H8.301a.266.266 0 0 1-.254-.18H8.03V47.794h.002c.018-2.654.818-4.908 1.938-5.773 1.117.865 1.919 3.119 1.936 5.773h.003v6.26zm3.712 14.979h-.015v-8.182c.594.259 1.251.402 1.939.402s1.345-.144 1.938-.402v8.182h-.017a.267.267 0 0 1-.254.18h-3.339a.274.274 0 0 1-.252-.18zm3.922 23.227v4.098a.271.271 0 0 1-.271.269h-3.339a.272.272 0 0 1-.271-.269V84.904h.003c.017-2.656.818-4.911 1.939-5.775 1.118.864 1.919 3.119 1.937 5.775h.002v7.356zm-1.997-32.943a3.24 3.24 0 1 1 0-6.481 3.24 3.24 0 1 1 0 6.481zm5.905 9.895a.269.269 0 0 1-.254-.18h-.018V47.793h.002c.02-2.654.818-4.908 1.938-5.773 1.121.865 1.922 3.119 1.937 5.773h.003v21.239h-.016a.276.276 0 0 1-.256.18H23.45zm5.608 23.048v4.098a.273.273 0 0 1-.271.269h-3.338a.273.273 0 0 1-.27-.269V84.904h.003c.017-2.656.817-4.911 1.937-5.775 1.119.864 1.92 3.119 1.937 5.775h.003v7.356z"/></svg>